PathFileType	4	(X/Y/Z)	C:/Users/cpontonn/Documents/TRAVAIL - COURS/FORMATION DOCTORALE/COURS AUTOMNE/TP OPENSIM/ESCRIME DATA/C3Ds/Trial011.trc	
DataRate	CameraRate	NumFrames	NumMarkers	Units	OrigDataRate	OrigDataStartFrame	OrigNumFrames	
250.00	250.00	4	54	mm	250.00	198	790	
Frame#	Time	Sword:Root4			Screen:LBot			Screen:RBot			Screen:LTop			Screen:RTop			Screen:MTop			Sword:Root1			Sword:Root2			Sword:Root3			Sword:Root5			Sword:Root6			Sword:STip			LFHD			LBHD			RFHD			RBHD			C7			T10			CLAV			STRN			LSHO			LRAD			LHUM			LWRB			LWRA			RSHO			RBAC			RUPA			RRAD			RHUM			RWRB			RWRA			RCAR			LFWT			LBWT			RFWT			RBWT			LKNE			LKNI			LANE			LANI			LHEE			LTAR			LTARI			LTOE			RTHI			RKNE			RKNI			RANE			RANI			RHEE			RTAR			RTARI			RTOE			
		X1	Y1	Z1	X2	Y2	Z2	X3	Y3	Z3	X4	Y4	Z4	X5	Y5	Z5	X6	Y6	Z6	X7	Y7	Z7	X8	Y8	Z8	X9	Y9	Z9	X10	Y10	Z10	X11	Y11	Z11	X12	Y12	Z12	X13	Y13	Z13	X14	Y14	Z14	X15	Y15	Z15	X16	Y16	Z16	X17	Y17	Z17	X18	Y18	Z18	X19	Y19	Z19	X20	Y20	Z20	X21	Y21	Z21	X22	Y22	Z22	X23	Y23	Z23	X24	Y24	Z24	X25	Y25	Z25	X26	Y26	Z26	X27	Y27	Z27	X28	Y28	Z28	X29	Y29	Z29	X30	Y30	Z30	X31	Y31	Z31	X32	Y32	Z32	X33	Y33	Z33	X34	Y34	Z34	X35	Y35	Z35	X36	Y36	Z36	X37	Y37	Z37	X38	Y38	Z38	X39	Y39	Z39	X40	Y40	Z40	X41	Y41	Z41	X42	Y42	Z42	X43	Y43	Z43	X44	Y44	Z44	X45	Y45	Z45	X46	Y46	Z46	X47	Y47	Z47	X48	Y48	Z48	X49	Y49	Z49	X50	Y50	Z50	X51	Y51	Z51	X52	Y52	Z52	X53	Y53	Z53	X54	Y54	Z54	

198	0.788	46.79050	1551.14233	1061.05823	-1670.96289	3506.15601	29.39793	2281.47510	3509.23730	31.82838	-1652.63159	3517.57886	2206.20898	2272.65820	3511.67432	2215.27832	-472.37958	3518.63232	2201.52173	93.50556	1596.81958	1084.95935	74.26837	1906.01428	1232.17114	170.38713	1535.15295	1042.55005	23.97089	1521.08948	1011.24707	102.04136	1576.28186	1003.00043	51.84863	2385.12891	1374.21802	216.84274	1148.83826	1506.49011	195.82059	1054.77783	1471.46252	433.06503	1137.69202	1512.47546	434.33524	1026.72546	1460.20801	253.30511	976.93207	1333.74341	164.41595	916.16565	1077.13806	352.38626	1083.79919	1221.66772	375.36639	1084.06348	1065.16821	140.83122	1153.33704	1248.27148	25.28252	1181.15039	935.61566	105.56430	1163.57556	894.90588	102.65360	1454.89966	924.17212	91.49487	1423.77539	1022.08936	427.49362	873.37189	1275.06409	272.96628	833.43909	1226.71729	463.59573	799.63647	1056.63599	436.03473	718.58466	978.97485	357.44714	754.60651	944.39374	605.58698	917.47839	907.58429	571.58990	951.77264	989.12024	653.39227	958.49127	981.58252	266.49969	1113.59424	843.53741	135.27252	926.99445	855.26874	397.56274	918.70001	849.43597	175.58221	865.24402	862.15472	203.96449	1377.02661	507.14914	340.12299	1351.14343	468.30997	164.13573	1326.50281	105.76038	257.59460	1301.04480	108.55767	179.73654	1244.55713	62.75819	182.77669	1463.94800	40.37483	284.28641	1428.02686	50.84285	279.58316	1507.51807	53.11205	553.72839	817.50885	500.30844	498.42004	731.49658	429.95313	505.02383	862.06604	369.58487	207.01822	683.44470	121.46416	256.30603	758.82660	74.60735	154.48907	740.84369	72.19733	305.94235	582.57965	52.45418	355.77475	685.16718	42.93391	404.59589	626.67499	49.40144 
199	0.792	46.56179	1551.21362	1061.16418	-1670.98120	3506.23755	29.38534	2281.63428	3509.41650	31.83071	-1652.52795	3517.60742	2206.09839	2272.60986	3511.64624	2215.26855	-472.50015	3518.34351	2201.37573	93.53861	1596.85364	1084.93945	74.39849	1906.03796	1232.16724	170.34471	1535.17932	1042.49609	24.01596	1521.11353	1011.24432	102.06324	1576.29480	1002.97760	52.02214	2385.17578	1374.26929	216.88216	1148.90356	1506.46472	195.84238	1054.80884	1471.45520	433.10876	1137.72205	1512.42969	434.30914	1026.72534	1460.22034	253.29500	976.90399	1333.75208	164.41080	916.14630	1077.12549	352.40073	1083.76550	1221.67236	375.37961	1084.05884	1065.18323	140.83792	1153.31079	1248.28064	25.30109	1181.18213	935.63074	105.41446	1163.34766	894.82947	102.82418	1454.79187	923.95093	91.52128	1423.81152	1022.05481	427.50397	873.34631	1275.06921	272.97653	833.42914	1226.72742	463.65421	799.69110	1056.52368	436.00089	718.53015	978.98230	357.41156	754.54987	944.39526	605.71735	917.49341	907.41010	571.60950	951.71362	989.09711	653.40039	958.38470	981.53619	266.28952	1113.32678	843.17493	135.28426	926.95435	855.26776	397.57108	918.69788	849.41901	175.55244	865.26971	862.12836	203.95094	1377.01123	507.12988	340.07401	1351.15979	468.27753	164.11609	1326.50183	105.75200	257.54343	1301.15186	108.65107	179.68495	1244.55249	62.75204	182.80124	1463.96350	40.38858	284.26434	1428.04419	50.81739	279.57086	1507.50208	53.14051	553.74847	817.51550	500.24796	498.40051	731.41925	430.01944	505.07797	862.08569	369.53931	207.11276	683.40692	121.35995	256.26797	758.84857	74.56872	154.49913	740.84888	72.18147	305.99966	582.52606	52.39224	355.76337	685.18854	42.91941	404.63275	626.67169	49.36367 
200	0.796	46.67903	1551.34741	1061.24231	-1671.02417	3506.22656	29.38147	2281.45752	3509.29883	31.83444	-1652.61218	3517.45557	2206.13013	2272.58984	3511.64526	2215.25488	-472.49945	3518.53198	2201.52002	93.57575	1596.83118	1084.90869	74.48692	1906.05200	1232.14404	170.52814	1535.26208	1042.44080	24.03725	1521.11475	1011.20972	102.10351	1576.35071	1002.95239	52.15415	2385.18774	1374.29016	216.90305	1148.91699	1506.44312	195.83528	1054.80579	1471.45520	433.09921	1137.70508	1512.42664	434.36725	1026.71216	1460.20886	253.28598	976.90936	1333.74976	164.42070	916.15833	1077.12073	352.40659	1083.76550	1221.66064	375.38364	1084.05786	1065.14478	140.86227	1153.30176	1248.26184	25.27487	1181.19458	935.62201	105.54871	1163.58582	894.91791	102.86266	1454.80188	923.91541	91.57144	1423.82678	1022.04822	427.47437	873.35248	1275.05615	272.97382	833.44312	1226.70581	463.66687	799.65845	1056.51208	435.95944	718.51837	978.97363	357.36707	754.54022	944.42047	605.61066	917.38672	907.51160	571.61584	951.62964	989.08368	653.41449	958.33661	981.46777	266.26709	1113.35278	843.14307	135.28136	926.97015	855.26093	397.56076	918.71869	849.38043	175.57060	865.27374	862.11792	203.89235	1376.99927	507.11032	340.01721	1351.20154	468.21179	164.09674	1326.51050	105.74767	257.53360	1301.17310	108.63956	179.67725	1244.53723	62.73518	182.76320	1463.95227	40.37719	284.25037	1428.03662	50.83857	279.57867	1507.50842	53.14394	553.74866	817.55951	500.26889	498.40100	731.48920	430.03098	505.17142	862.00916	369.46515	207.01698	683.43909	121.45267	256.40860	758.80896	74.49657	154.50742	740.85089	72.19804	305.97714	582.52795	52.40665	355.74182	685.31122	43.07710	404.59631	626.65338	49.44354 
201	0.800	46.85688	1551.30103	1061.02271	-1670.97412	3506.19727	29.36595	2281.59863	3509.34570	31.81685	-1652.59155	3517.47559	2206.05713	2272.67627	3511.68506	2215.30444	-472.49496	3518.37036	2201.44116	93.62930	1596.86401	1084.89917	74.57361	1906.06262	1232.13464	170.47357	1535.22522	1042.44336	24.08529	1521.18054	1011.21631	102.17029	1576.38440	1002.90955	52.27216	2385.18799	1374.27893	216.90446	1148.91833	1506.43518	195.84154	1054.81970	1471.46838	433.12106	1137.73743	1512.40442	434.36044	1026.74768	1460.22864	253.30983	976.92896	1333.71973	164.43330	916.18347	1077.12024	352.39993	1083.75317	1221.66370	375.37637	1084.02905	1065.17017	140.83350	1153.28064	1248.26489	25.26077	1181.24182	935.62823	105.71290	1163.76685	894.94293	102.68372	1454.95557	924.16248	91.59467	1423.85266	1022.03149	427.46170	873.32947	1275.04236	272.98334	833.41815	1226.73230	463.54349	799.64093	1056.71497	435.90503	718.47607	978.99298	357.35513	754.54126	944.41388	605.71295	917.36066	907.36700	571.72223	951.51831	988.87451	653.46155	958.26398	981.42639	266.40256	1113.56335	843.44312	135.25534	926.98090	855.20514	397.56613	918.77985	849.36151	175.56070	865.31525	862.10553	203.86301	1376.97424	507.09769	339.99118	1351.24072	468.16559	164.08682	1326.51892	105.74239	257.56372	1301.04150	108.57504	179.58723	1244.56238	62.81042	182.74106	1463.98230	40.35618	284.25397	1428.04626	50.82848	279.57022	1507.50598	53.16537	553.73517	817.60022	500.24771	498.49051	731.46643	429.96545	505.08694	862.07153	369.53604	206.98616	683.45728	121.46237	256.26517	758.84467	74.56380	154.50752	740.85730	72.20118	305.93185	582.58392	52.47552	355.78546	685.23022	42.95755	404.59167	626.66150	49.42889 
